HIERARCHY
ROOT joint_0
{
	OFFSET 0.000000 0.000000 0.000000
	CHANNELS 6 Xposition Yposition Zposition Zrotation Yrotation Xrotation 
	JOINT joint_1
	{
		OFFSET 1.363060 -1.794630 0.839290
		CHANNELS 3 Zrotation Yrotation Xrotation
		JOINT joint_2
		{
			OFFSET 2.448110 -6.726130 0.000000
			CHANNELS 3 Zrotation Yrotation Xrotation
			JOINT joint_3
			{
				OFFSET 2.562200 -7.039590 0.000000
				CHANNELS 3 Zrotation Yrotation Xrotation
				JOINT joint_4
				{
					OFFSET 0.157640 -0.433110 2.322550
					CHANNELS 3 Zrotation Yrotation Xrotation
					End Site
					{
						OFFSET 0.000000 0.000000 0.000000
					}
				}
			}
		}
	}
	JOINT joint_5
	{
		OFFSET -1.305520 -1.794630 0.839290
		CHANNELS 3 Zrotation Yrotation Xrotation
		JOINT joint_6
		{
			OFFSET -2.542530 -6.985550 0.000000
			CHANNELS 3 Zrotation Yrotation Xrotation
			JOINT joint_7
			{
				OFFSET -2.568260 -7.056230 0.000000
				CHANNELS 3 Zrotation Yrotation Xrotation
				JOINT joint_8
				{
					OFFSET -0.164730 -0.452590 2.363150
					CHANNELS 3 Zrotation Yrotation Xrotation
					End Site
					{
						OFFSET 0.000000 0.000000 0.000000
					}
				}
			}
		}
	}
	JOINT joint_9
	{
		OFFSET 0.028270 2.035590 -0.193380
		CHANNELS 3 Zrotation Yrotation Xrotation
		JOINT joint_10
		{
			OFFSET 0.056720 4.548850 -0.042750
			CHANNELS 3 Zrotation Yrotation Xrotation
			JOINT joint_11
			{
				OFFSET -0.054170 1.746240 0.172020
				CHANNELS 3 Zrotation Yrotation Xrotation
				JOINT joint_12
				{
					OFFSET 0.104070 1.761360 -0.123970
					CHANNELS 3 Zrotation Yrotation Xrotation
					End Site
					{
						OFFSET 0.000000 0.000000 0.000000
					}
				}
			}
			JOINT joint_13
			{
				OFFSET 3.362410 1.200890 -0.311210
				CHANNELS 3 Zrotation Yrotation Xrotation
				JOINT joint_14
				{
					OFFSET 5.783000 0.000000 0.000000
					CHANNELS 3 Zrotation Yrotation Xrotation
					JOINT joint_15
					{
						OFFSET 6.683559 0.000000 0.000000
						CHANNELS 3 Zrotation Yrotation Xrotation
						JOINT joint_16
						{
							OFFSET 0.000000 0.000000 0.000000
							CHANNELS 3 Zrotation Yrotation Xrotation
							End Site
							{
								OFFSET 0.000000 0.000000 0.000000
							}
						}
					}
				}
			}
			JOINT joint_17
			{
				OFFSET -2.136613 1.374050 -0.404650
				CHANNELS 3 Zrotation Yrotation Xrotation
				JOINT joint_18
				{
					OFFSET -0.741900 0.000000 0.000000
					CHANNELS 3 Zrotation Yrotation Xrotation
					JOINT joint_19
					{
						OFFSET -0.744170 0.000000 0.000000
						CHANNELS 3 Zrotation Yrotation Xrotation
						JOINT joint_20
						{
							OFFSET 0.000000 0.000000 0.000000
							CHANNELS 3 Zrotation Yrotation Xrotation
							End Site
							{
								OFFSET 0.000000 0.000000 0.000000
							}
						}
					}
				}
			}
		}
	}
}
MOTION
Frames: 7
Frame Time: 0.031667
-9.504039 13.213994 1.398569 -12.802456 78.930977 -3.364663 -5.464170 8.136166 -34.923851 -1.298480 14.283095 35.996678 -1.993772 2.363051 3.939167 -0.577270 -0.610441 -0.265277 -2.456691 -12.741071 -18.994188 -13.661716 -23.269807 76.693912 -1.293774 -2.305575 -0.152022 -2.295770 7.548589 -24.875698 -5.546717 -2.430502 -3.920215 -0.996344 -1.371326 15.509427 5.222888 -1.707086 10.649555 -0.129301 -0.025428 -17.824030 -60.629641 -58.969633 3.690301 25.615669 -32.703115 -12.394845 4.582547 -3.627180 -1.897737 -7.614958 -0.617145 -0.502928 65.626742 67.501694 38.948001 -19.635197 22.754260 -15.907483 -3.131522 2.898006 -1.828859 6.379200 -0.566023 -0.622448 
-9.044865 13.234505 1.380784 -15.252708 78.662460 -5.019760 -5.771527 8.289491 -36.090970 -0.517777 15.228904 39.033233 -1.916032 2.038719 3.879722 -0.570804 -0.894402 -1.037798 -2.398505 -12.751918 -18.627549 -13.864266 -23.273792 77.162044 -1.234381 -2.292744 -0.156731 -2.181355 7.284234 -24.058535 -5.640678 -2.246028 -3.989701 -0.915270 -1.295527 15.177948 5.292489 -1.748998 10.597234 0.226231 -0.003014 -17.755991 -63.121601 -59.001954 7.748536 24.602860 -31.693549 -12.532200 4.615962 -3.892066 -1.749412 -7.615938 -0.617488 -0.502980 67.823971 65.962696 40.241372 -19.532855 22.579155 -16.503252 -3.101434 3.051565 -1.868363 6.380422 -0.566312 -0.620445 
-8.582102 13.253814 1.375227 -16.009581 78.725639 -5.274573 -6.067417 8.366381 -37.165430 0.267856 16.103293 41.992983 -1.812235 1.808265 3.790293 -0.560308 -1.160065 -1.761514 -2.361162 -12.603015 -18.213311 -14.026270 -23.310930 77.645342 -1.197672 -2.457966 -0.129150 -1.989721 6.819235 -22.622363 -5.762924 -2.061868 -4.061456 -0.837470 -1.226973 14.838174 5.303488 -1.798364 10.553338 0.592531 0.013092 -17.569523 -65.547362 -58.672159 11.879466 23.512087 -30.598142 -12.657394 4.635349 -4.164105 -1.634534 -7.615564 -0.616827 -0.501707 69.762975 64.235130 41.359289 -19.419974 22.397942 -17.085950 -3.068299 3.192290 -1.919039 6.383049 -0.565704 -0.616994 
-8.108243 13.300405 1.390545 -14.743326 79.047958 -3.570675 -6.325579 8.332652 -38.004244 0.986189 16.831508 44.611041 -1.687317 1.686685 3.680617 -0.547093 -1.404011 -2.427442 -2.341873 -12.292467 -17.779490 -14.150226 -23.362554 78.115649 -1.186159 -2.815766 -0.054488 -1.717808 6.091567 -20.406373 -5.896726 -1.875536 -4.137222 -0.775247 -1.167144 14.507807 5.259713 -1.870004 10.523738 0.953206 0.012245 -17.282450 -67.743652 -58.044344 15.822432 22.406433 -29.467553 -12.794255 4.646322 -4.441037 -1.514959 -7.614101 -0.615652 -0.499839 71.369767 62.417642 42.282956 -19.283223 22.186622 -17.622178 -3.033946 3.328284 -1.947116 6.386109 -0.564660 -0.612888 
-7.625435 13.354099 1.398971 -12.545284 79.557106 -1.045868 -6.546599 8.180651 -38.602999 1.579423 17.426914 46.829142 -1.560023 1.655989 3.585942 -0.531278 -1.638927 -3.071046 -2.309792 -11.835912 -17.395880 -14.259263 -23.477747 78.691767 -1.195505 -3.353959 0.091563 -1.397053 5.093500 -17.428584 -6.017678 -1.690374 -4.229182 -0.724387 -1.112490 14.207704 5.172212 -1.962380 10.508934 1.321968 -0.002624 -16.911089 -69.505443 -57.248705 19.280556 21.332645 -28.359330 -12.953970 4.659657 -4.707014 -1.386675 -7.611902 -0.614093 -0.497403 72.719211 60.617052 43.093629 -19.129187 21.939050 -18.100827 -3.009129 3.441172 -1.956196 6.389559 -0.563313 -0.608386 
-7.136471 13.432327 1.396847 -12.834898 80.075310 -0.522212 -6.718474 7.927028 -38.987301 2.037483 17.912379 48.683181 -1.441530 1.681384 3.529766 -0.512326 -1.881794 -3.738094 -2.254594 -11.271365 -17.157756 -14.385579 -23.659136 79.447219 -1.218713 -3.987928 0.292599 -1.072678 3.829986 -13.746077 -6.121813 -1.502913 -4.333662 -0.690366 -1.057666 13.971388 5.020556 -2.055746 10.484610 1.713674 -0.019889 -16.482452 -70.803180 -56.442807 22.145063 20.316333 -27.317855 -13.128636 4.678217 -4.958635 -1.269312 -7.609655 -0.612564 -0.494626 73.839178 58.941810 43.804909 -18.962534 21.657521 -18.514293 -3.000246 3.520409 -1.978167 6.392872 -0.562051 -0.603987 
-6.670526 13.501952 1.377144 -15.472880 80.590347 -2.654320 -6.833563 7.629036 -39.171069 2.375150 18.317029 50.232760 -1.338883 1.728149 3.531651 -0.488777 -2.127408 -4.419914 -2.159065 -10.630222 -17.113481 -14.544153 -23.892677 80.427905 -1.269386 -4.613351 0.533982 -0.806569 2.397086 -9.637745 -6.210249 -1.315607 -4.437286 -0.651930 -0.997279 13.789513 4.812586 -2.160669 10.461262 2.143117 -0.036719 -16.032001 -71.665706 -55.689441 24.423926 19.419488 -26.386897 -13.326013 4.713325 -5.182042 -1.161601 -7.605789 -0.609204 -0.490158 74.786090 57.488969 44.469007 -18.772739 21.346933 -18.866797 -3.002945 3.595650 -1.995981 6.397768 -0.559302 -0.597966 
